<mxfile host="app.diagrams.net" modified="2024-05-23T16:39:48.700Z" agent="Mozilla/5.0 (Windows NT 10.0; Win64; x64) AppleWebKit/537.36 (KHTML, like Gecko) Chrome/124.0.0.0 Safari/537.36" version="24.4.6" etag="JUmA1O6pSImn5Qi8xL0N" type="github">
  <diagram name="PÃ¡gina-1" id="gAeNs9SVhQIt-2BvgOpQ">
    <mxGraphModel>
      <root>
        <mxCell id="0" />
        <mxCell id="1" parent="0" />
      </root>
    </mxGraphModel>
  </diagram>
</mxfile>
